<svg xmlns="http://www.w3.org/2000/svg" viewBox="0 0 32 32" fill="none">
  <circle cx="16" cy="16" r="16" fill="#25b7a7"/>
  <path d="M11.5 16c0-2.2 1.8-3.5 3.2-3.5 1.1 0 2 .6 2.5 1.4.5-.8 1.4-1.4 2.5-1.4 1.4 0 3.2 1.3 3.2 3.5s-1.8 3.5-3.2 3.5c-1.1 0-2-.6-2.5-1.4-.5.8-1.4 1.4-2.5 1.4-1.4 0-3.2-1.3-3.2-3.5z" fill="#fff" opacity=".95"/>
  <path d="M10 16c0-3.3 2.7-5.5 4.7-5.5 1.6 0 3 .9 3.7 2.2.7-1.3 2.1-2.2 3.7-2.2 2 0 4.7 2.2 4.7 5.5s-2.7 5.5-4.7 5.5c-1.6 0-3-.9-3.7-2.2-.7 1.3-2.1 2.2-3.7 2.2C12.7 21.5 10 19.3 10 16z" stroke="#fff" stroke-width="1.6" fill="none"/>
</svg>
